<svg width="32" height="32" viewBox="0 0 32 32" fill="none" xmlns="http://www.w3.org/2000/svg">
<rect x="0.5" y="0.5" width="31" height="31" rx="7.5" fill="white"/>
<rect x="0.5" y="0.5" width="31" height="31" rx="7.5" stroke="#F0F0F0"/>
<path d="M25 9.97998C21.67 9.64998 18.32 9.47998 14.98 9.47998C13 9.47998 11.02 9.57998 9.04 9.77998L7 9.97998" stroke="#FF3232" stroke-width="1.5" stroke-linecap="round" stroke-linejoin="round"/>
<path d="M12.5 8.97L12.72 7.66C12.88 6.71 13 6 14.69 6H17.31C19 6 19.13 6.75 19.28 7.67L19.5 8.97" stroke="#FF3232" stroke-width="1.5" stroke-linecap="round" stroke-linejoin="round"/>
<path d="M22.85 13.1399L22.2 23.2099C22.09 24.7799 22 25.9999 19.21 25.9999H12.79C9.99999 25.9999 9.90999 24.7799 9.79999 23.2099L9.14999 13.1399" stroke="#FF3232" stroke-width="1.5" stroke-linecap="round" stroke-linejoin="round"/>
<path d="M14.33 20.5H17.66" stroke="#FF3232" stroke-width="1.5" stroke-linecap="round" stroke-linejoin="round"/>
<path d="M13.5 16.5H18.5" stroke="#FF3232" stroke-width="1.5" stroke-linecap="round" stroke-linejoin="round"/>
</svg>
